<?xml version="1.0" standalone="no"?>
<!DOCTYPE svg PUBLIC "-//W3C//DTD SVG 20010904//EN"
 "http://www.w3.org/TR/2001/REC-SVG-20010904/DTD/svg10.dtd">
<svg version="1.0" xmlns="http://www.w3.org/2000/svg"
 width="500.000000pt" height="500.000000pt" viewBox="0 0 500.000000 500.000000"
 preserveAspectRatio="xMidYMid meet">
<metadata>
Created by potrace 1.14, written by Peter Selinger 2001-2017
</metadata>
<g transform="translate(0.000000,500.000000) scale(0.100000,-0.100000)"
fill="#000000" stroke="none">
<path d="M2112 3652 c-11 -11 -46 -64 -78 -118 -49 -83 -81 -121 -194 -230
-233 -227 -304 -281 -426 -326 -47 -18 -80 -22 -164 -22 -172 1 -248 39 -441
220 -68 64 -133 122 -145 130 -18 13 -32 11 -122 -16 -191 -57 -206 -64 -230
-118 -36 -78 -69 -175 -112 -324 -88 -308 -118 -581 -86 -796 9 -62 21 -171
26 -242 7 -91 15 -144 29 -175 42 -95 168 -198 289 -235 71 -22 246 -28 1377
-50 880 -17 1213 -16 1395 4 647 71 1060 173 1394 344 200 102 267 182 274
328 5 91 -15 162 -65 234 -49 70 -99 97 -198 110 -106 13 -218 41 -433 106
-445 134 -584 190 -977 393 -228 117 -230 118 -243 159 -22 66 -101 122 -174
122 -10 0 -24 14 -32 33 -20 47 -57 76 -106 85 -40 7 -44 10 -56 50 -17 58
-37 78 -96 98 -37 12 -73 39 -152 114 -109 103 -139 124 -198 135 -29 5 -40 3
-56 -13z m165 -174 c83 -82 93 -101 61 -122 -14 -8 -33 -2 -95 31 -43 22 -93
44 -110 48 -18 4 -33 9 -33 11 0 21 68 114 82 114 6 0 48 -37 95 -82z m-148
-199 c32 -11 42 -29 17 -29 -8 0 -33 -22 -56 -50 -33 -39 -48 -50 -71 -50 -37
0 -79 -40 -79 -74 0 -31 37 -73 71 -81 19 -5 34 0 57 20 18 15 32 33 32 41 0
15 25 28 73 39 16 3 40 17 54 31 19 19 23 31 18 54 -4 17 -3 30 0 30 11 0 85
-43 85 -49 0 -12 -214 -143 -319 -195 l-66 -34 -73 42 c-40 24 -77 47 -83 53
-20 20 254 263 296 263 7 0 26 -5 44 -11z m-1430 -211 c216 -205 377 -278 586
-265 110 6 205 37 316 102 43 25 87 45 98 45 25 0 112 -52 108 -64 -8 -24
-350 -115 -524 -140 -167 -24 -195 -22 -262 18 -107 64 -269 114 -525 162 -54
10 -100 23 -103 30 -2 7 8 42 24 80 l28 67 65 23 c36 12 73 23 84 23 10 1 57
-35 105 -81z m1731 -16 c0 -94 76 -117 137 -43 20 25 22 25 41 8 13 -12 23
-38 27 -70 9 -70 28 -97 66 -97 40 0 68 16 79 46 18 48 56 17 65 -54 9 -73 18
-95 47 -111 37 -21 79 -6 97 37 8 17 21 32 28 32 16 0 436 -210 431 -215 -2
-2 -32 3 -66 11 -220 51 -455 29 -649 -61 -104 -48 -191 -112 -313 -230 l-105
-102 -90 9 c-49 5 -196 24 -325 44 -129 19 -286 42 -349 51 -109 16 -115 18
-130 46 -9 16 -45 70 -79 119 -35 49 -62 91 -60 93 2 2 77 -16 167 -40 305
-83 552 -126 731 -128 99 -1 121 2 160 20 84 40 120 86 120 152 0 50 -27 103
-97 189 -37 46 -148 142 -163 142 -5 0 -3 -19 5 -41 20 -55 18 -95 -4 -145
-54 -119 -216 -138 -651 -78 -63 9 -119 20 -123 24 -4 4 29 15 75 25 116 25
311 88 443 144 138 59 252 121 375 205 52 36 98 65 103 65 4 1 7 -21 7 -47z
m-1884 -238 c340 -72 444 -122 615 -293 91 -91 149 -165 137 -176 -2 -1 -136
13 -298 31 -162 19 -367 37 -455 40 -156 6 -162 6 -222 -19 l-63 -26 0 37 c1
92 84 442 105 442 7 0 89 -16 181 -36z m2872 -329 l113 -28 29 28 c31 29 58
30 124 2 29 -13 28 -13 -55 -35 -115 -31 -250 -99 -333 -168 -39 -32 -71 -53
-73 -48 -12 36 -88 138 -115 155 -49 30 -104 20 -269 -51 -153 -66 -260 -104
-324 -115 l-40 -7 45 47 c94 98 243 185 392 230 76 23 96 25 238 22 130 -3
173 -8 268 -32z m582 -109 c36 -8 117 -31 180 -52 139 -45 134 -48 -112 -58
-340 -14 -423 -28 -606 -102 -77 -31 -122 -44 -138 -40 -13 4 -24 10 -24 15 0
20 127 124 189 156 158 79 365 112 511 81z m-3220 -77 c287 -28 704 -81 1013
-129 333 -52 524 -67 660 -52 126 14 200 36 396 119 85 36 168 66 185 67 28 1
35 -6 86 -91 69 -116 100 -150 157 -175 59 -26 104 -20 205 26 162 74 191 79
568 101 140 9 300 23 355 32 55 9 137 16 182 17 73 1 84 -1 107 -23 60 -57 74
-184 26 -251 -38 -53 -65 -59 -357 -75 -470 -26 -1141 -55 -1274 -55 -141 0
-177 6 -949 155 -429 82 -470 87 -1100 140 l-425 36 -90 -42 c-76 -36 -102
-43 -171 -47 -49 -2 -84 0 -88 6 -3 5 -9 48 -12 95 l-7 85 42 28 c23 15 66 36
94 46 58 20 56 20 397 -13z m311 -299 c588 -50 626 -55 1169 -160 723 -140
673 -133 950 -126 129 3 433 15 674 26 242 12 456 20 475 18 33 -3 28 -6 -54
-36 -225 -84 -498 -143 -940 -204 -202 -28 -669 -34 -1510 -19 -949 17 -1310
29 -1358 43 l-42 12 93 11 c99 12 116 20 110 56 -5 39 -41 49 -189 49 -149 0
-165 5 -175 56 l-6 32 225 4 c231 4 257 8 257 46 0 9 -10 26 -22 39 -21 23
-25 23 -240 23 l-218 0 0 39 0 38 83 6 c65 5 101 13 163 41 99 44 101 44 555
6z"/>
<path d="M910 1838 c-91 -61 -89 -182 3 -239 31 -19 49 -19 499 -17 l468 3 36
36 c62 63 56 163 -14 214 -26 19 -45 20 -492 23 l-466 3 -34 -23z m938 -90
c18 -18 14 -46 -7 -58 -27 -14 -855 -14 -882 0 -24 13 -25 46 -1 59 26 16 874
15 890 -1z"/>
</g>
</svg>
